<svg width="766" height="187" viewBox="0 0 766 187" fill="none" xmlns="http://www.w3.org/2000/svg">
<path d="M370.734 68.4062C368.234 68.4062 366.188 67.6719 364.594 66.2031C363 64.7031 362.203 62.875 362.203 60.7188C362.203 58.5 363 56.6875 364.594 55.2812C366.188 53.875 368.234 53.1719 370.734 53.1719C373.266 53.1719 375.312 53.875 376.875 55.2812C378.469 56.6875 379.266 58.5 379.266 60.7188C379.266 62.9688 378.469 64.8125 376.875 66.25C375.312 67.6875 373.266 68.4062 370.734 68.4062ZM378.047 124H363.234V76H378.047V124ZM441.675 124H426.909V97.3281C426.909 89.8906 424.253 86.1719 418.941 86.1719C416.378 86.1719 414.269 87.1562 412.612 89.125C410.956 91.0938 410.128 93.5938 410.128 96.625V124H395.316V76H410.128V83.5938H410.316C413.847 77.75 418.987 74.8281 425.737 74.8281C436.362 74.8281 441.675 81.4219 441.675 94.6094V124ZM489.553 64.2812C487.647 63.5312 485.819 63.1562 484.069 63.1562C479.319 63.1562 476.944 65.7344 476.944 70.8906V76H487.912V86.9219H476.944V124H462.178V86.9219H454.116V76H462.178V70.0469C462.178 64.5781 463.959 60.1719 467.522 56.8281C471.084 53.4844 475.928 51.8125 482.053 51.8125C485.053 51.8125 487.553 52.125 489.553 52.75V64.2812ZM507.384 68.4062C504.884 68.4062 502.837 67.6719 501.244 66.2031C499.65 64.7031 498.853 62.875 498.853 60.7188C498.853 58.5 499.65 56.6875 501.244 55.2812C502.837 53.875 504.884 53.1719 507.384 53.1719C509.916 53.1719 511.962 53.875 513.525 55.2812C515.119 56.6875 515.916 58.5 515.916 60.7188C515.916 62.9688 515.119 64.8125 513.525 66.25C511.962 67.6875 509.916 68.4062 507.384 68.4062ZM514.697 124H499.884V76H514.697V124ZM578.325 124H563.559V97.3281C563.559 89.8906 560.903 86.1719 555.591 86.1719C553.028 86.1719 550.919 87.1562 549.262 89.125C547.606 91.0938 546.778 93.5938 546.778 96.625V124H531.966V76H546.778V83.5938H546.966C550.497 77.75 555.637 74.8281 562.387 74.8281C573.012 74.8281 578.325 81.4219 578.325 94.6094V124ZM602.391 68.4062C599.891 68.4062 597.844 67.6719 596.25 66.2031C594.656 64.7031 593.859 62.875 593.859 60.7188C593.859 58.5 594.656 56.6875 596.25 55.2812C597.844 53.875 599.891 53.1719 602.391 53.1719C604.922 53.1719 606.969 53.875 608.531 55.2812C610.125 56.6875 610.922 58.5 610.922 60.7188C610.922 62.9688 610.125 64.8125 608.531 66.25C606.969 67.6875 604.922 68.4062 602.391 68.4062ZM609.703 124H594.891V76H609.703V124ZM655.987 123.438C653.8 124.594 650.503 125.172 646.097 125.172C635.659 125.172 630.441 119.75 630.441 108.906V86.9219H622.659V76H630.441V65.6406L645.206 61.4219V76H655.987V86.9219H645.206V106.328C645.206 111.328 647.191 113.828 651.159 113.828C652.722 113.828 654.331 113.375 655.987 112.469V123.438ZM714.881 76L695.381 127.844C690.694 140.312 683.631 146.547 674.194 146.547C670.6 146.547 667.647 146.141 665.334 145.328V133.516C667.303 134.672 669.444 135.25 671.756 135.25C675.569 135.25 678.225 133.453 679.725 129.859L682.256 123.906L662.756 76H679.163L688.116 105.203C688.678 107.016 689.116 109.156 689.428 111.625H689.616C689.897 109.812 690.413 107.703 691.163 105.297L700.209 76H714.881Z" fill="#0E0E0E"/>
<path d="M121.118 138.654C65.9783 168.062 27.6867 144.343 15.4334 128.807C10.8384 122.024 5.19308 103.994 19.3719 86.1395C33.5508 68.2846 55.0379 73.0109 64.009 77.6059L122.431 137.997L121.118 138.654Z" fill="url(#paint0_linear_57_1779)"/>
<path d="M289.164 34.9383C260.281 -26.766 163.786 3.4297 130.964 47.4104L180.853 104.52C227.459 152.439 320.016 124.212 289.164 34.9383Z" fill="url(#paint1_linear_57_1779)"/>
<path d="M65.9785 82.2016C39.3857 57.7661 -2.94646 94.0172 15.4335 128.808C-15.0248 84.1708 7.66728 45.7854 15.4335 38.2209C65.9785 -11.0113 122.431 28.3744 166.412 86.1401C203.059 134.274 239.057 128.589 250.435 123.557C299.01 102.071 298.931 61.8523 288.508 33.6259C352.181 145.219 214.988 229.241 146.719 163.599L65.9785 82.2016Z" fill="url(#paint2_linear_57_1779)"/>
<defs>
<linearGradient id="paint0_linear_57_1779" x1="10.5027" y1="101.746" x2="122.095" y2="139.163" gradientUnits="userSpaceOnUse">
<stop stop-color="#FEF7FE"/>
<stop offset="1" stop-color="#8969C8"/>
</linearGradient>
<linearGradient id="paint1_linear_57_1779" x1="139.819" y1="54.4835" x2="288.828" y2="84.6792" gradientUnits="userSpaceOnUse">
<stop stop-color="#6F4CA6"/>
<stop offset="1" stop-color="#FEFDF9"/>
</linearGradient>
<linearGradient id="paint2_linear_57_1779" x1="4.82184e-07" y1="76.8026" x2="304.583" y2="82.7104" gradientUnits="userSpaceOnUse">
<stop stop-color="#543286"/>
<stop offset="0.0561007" stop-color="#4A287F"/>
<stop offset="0.134476" stop-color="#5A319B"/>
<stop offset="0.268046" stop-color="#6D45B8"/>
<stop offset="0.410379" stop-color="#8960E2"/>
<stop offset="0.5283" stop-color="#6F47BB"/>
<stop offset="0.746182" stop-color="#4A2380"/>
<stop offset="1" stop-color="#411E71"/>
</linearGradient>
</defs>
</svg>
